<mxfile host="app.diagrams.net" modified="2023-02-07T12:22:42.459Z" agent="5.0 (Windows NT 10.0; WOW64) AppleWebKit/537.36 (KHTML, like Gecko) Chrome/109.0.0.0 Safari/537.36" etag="3uxkkp5SeiyGdSFanqir" version="20.8.17" type="github">
  <diagram name="Page-1" id="2a216829-ef6e-dabb-86c1-c78162f3ba2b">
    <mxGraphModel dx="880" dy="486" grid="1" gridSize="10" guides="1" tooltips="1" connect="1" arrows="1" fold="1" page="1" pageScale="1" pageWidth="850" pageHeight="1100" background="none" math="0" shadow="0">
      <root>
        <mxCell id="0" />
        <mxCell id="1" parent="0" />
        <mxCell id="7a84cebc1def654-1" value="" style="shape=mxgraph.bpmn.shape;html=1;verticalLabelPosition=bottom;labelBackgroundColor=none;verticalAlign=top;perimeter=ellipsePerimeter;outline=standard;symbol=general;" parent="1" vertex="1">
          <mxGeometry y="255.07331905976673" width="50" height="50" as="geometry" />
        </mxCell>
        <mxCell id="7a84cebc1def654-2" value="compute&lt;br&gt;mean, median, &lt;br&gt;range, stddev" style="shape=ext;rounded=1;html=1;whiteSpace=wrap;labelBackgroundColor=none;" parent="1" vertex="1">
          <mxGeometry x="150" y="240.07331905976673" width="120" height="80" as="geometry" />
        </mxCell>
        <mxCell id="7a84cebc1def654-3" value="Task" style="shape=ext;rounded=1;html=1;whiteSpace=wrap;labelBackgroundColor=none;" parent="1" vertex="1">
          <mxGeometry x="370" width="120" height="80" as="geometry" />
        </mxCell>
        <mxCell id="7a84cebc1def654-36" style="edgeStyle=orthogonalEdgeStyle;rounded=0;html=1;jettySize=auto;orthogonalLoop=1;labelBackgroundColor=none;fontColor=default;noEdgeStyle=1;orthogonal=1;" parent="1" source="7a84cebc1def654-1" target="7a84cebc1def654-2" edge="1">
          <mxGeometry relative="1" as="geometry">
            <Array as="points">
              <mxPoint x="62" y="280.07331905976673" />
              <mxPoint x="138" y="262.57331905976673" />
            </Array>
          </mxGeometry>
        </mxCell>
        <mxCell id="7a84cebc1def654-39" style="edgeStyle=orthogonalEdgeStyle;rounded=0;html=1;jettySize=auto;orthogonalLoop=1;labelBackgroundColor=none;fontColor=default;noEdgeStyle=1;orthogonal=1;" parent="1" source="7a84cebc1def654-2" target="7a84cebc1def654-3" edge="1">
          <mxGeometry relative="1" as="geometry">
            <Array as="points">
              <mxPoint x="282" y="252.07331905976673" />
              <mxPoint x="358" y="40" />
            </Array>
          </mxGeometry>
        </mxCell>
        <mxCell id="xcf2dydyv8335VmhDi4d-6" value="" style="edgeStyle=elbowEdgeStyle;fontSize=12;html=1;endFill=0;startFill=0;endSize=6;startSize=6;dashed=1;dashPattern=1 4;endArrow=openThin;startArrow=none;rounded=0;noEdgeStyle=1;orthogonal=1;labelBackgroundColor=none;fontColor=default;" edge="1" parent="1" source="xcf2dydyv8335VmhDi4d-9" target="7a84cebc1def654-2">
          <mxGeometry width="160" relative="1" as="geometry">
            <mxPoint x="400" y="460" as="sourcePoint" />
            <mxPoint x="560" y="460" as="targetPoint" />
            <Array as="points">
              <mxPoint x="62" y="358.9069959456997" />
              <mxPoint x="138" y="297.57331905976673" />
            </Array>
          </mxGeometry>
        </mxCell>
        <mxCell id="xcf2dydyv8335VmhDi4d-7" value="median, range&lt;br&gt;(range=max-min)" style="shape=mxgraph.bpmn.data;labelPosition=center;verticalLabelPosition=bottom;align=center;verticalAlign=top;whiteSpace=wrap;size=15;html=1;labelBackgroundColor=none;" vertex="1" parent="1">
          <mxGeometry x="378.75" y="110" width="102.5" height="50" as="geometry" />
        </mxCell>
        <mxCell id="xcf2dydyv8335VmhDi4d-8" value="" style="edgeStyle=elbowEdgeStyle;fontSize=12;html=1;endFill=0;startFill=0;endSize=6;startSize=6;dashed=1;dashPattern=1 4;endArrow=openThin;startArrow=none;rounded=0;noEdgeStyle=1;orthogonal=1;labelBackgroundColor=none;fontColor=default;" edge="1" parent="1" source="7a84cebc1def654-2" target="xcf2dydyv8335VmhDi4d-7">
          <mxGeometry width="160" relative="1" as="geometry">
            <mxPoint x="413" y="440" as="sourcePoint" />
            <mxPoint x="413" y="340" as="targetPoint" />
            <Array as="points">
              <mxPoint x="284" y="266.07331905976673" />
              <mxPoint x="358" y="153" />
            </Array>
          </mxGeometry>
        </mxCell>
        <mxCell id="xcf2dydyv8335VmhDi4d-9" value="dataset" style="shape=mxgraph.bpmn.data;labelPosition=center;verticalLabelPosition=bottom;align=center;verticalAlign=top;whiteSpace=wrap;size=15;html=1;" vertex="1" parent="1">
          <mxGeometry x="5" y="336.1569959456997" width="40" height="60" as="geometry" />
        </mxCell>
        <mxCell id="xcf2dydyv8335VmhDi4d-11" value="Z-score" style="shape=mxgraph.bpmn.data;labelPosition=center;verticalLabelPosition=bottom;align=center;verticalAlign=top;whiteSpace=wrap;size=15;html=1;labelBackgroundColor=none;" vertex="1" parent="1">
          <mxGeometry x="408.75" y="226" width="42.5" height="50" as="geometry" />
        </mxCell>
        <mxCell id="xcf2dydyv8335VmhDi4d-12" value="" style="edgeStyle=elbowEdgeStyle;fontSize=12;html=1;endFill=0;startFill=0;endSize=6;startSize=6;dashed=1;dashPattern=1 4;endArrow=openThin;startArrow=none;rounded=0;noEdgeStyle=1;orthogonal=1;labelBackgroundColor=none;fontColor=default;" edge="1" parent="1" source="7a84cebc1def654-2" target="xcf2dydyv8335VmhDi4d-11">
          <mxGeometry width="160" relative="1" as="geometry">
            <mxPoint x="335" y="111.25" as="sourcePoint" />
            <mxPoint x="442.5" y="145" as="targetPoint" />
            <Array as="points">
              <mxPoint x="286" y="280.07331905976673" />
              <mxPoint x="358" y="261.5" />
            </Array>
          </mxGeometry>
        </mxCell>
        <mxCell id="xcf2dydyv8335VmhDi4d-13" value="extract one &lt;br&gt;data point" style="shape=ext;rounded=1;html=1;whiteSpace=wrap;labelBackgroundColor=none;" vertex="1" parent="1">
          <mxGeometry x="150" y="434.32849797284985" width="120" height="80" as="geometry" />
        </mxCell>
        <mxCell id="xcf2dydyv8335VmhDi4d-14" value="" style="edgeStyle=elbowEdgeStyle;fontSize=12;html=1;endFill=0;startFill=0;endSize=6;startSize=6;dashed=1;dashPattern=1 4;endArrow=openThin;startArrow=none;rounded=0;noEdgeStyle=1;orthogonal=1;labelBackgroundColor=none;fontColor=default;" edge="1" parent="1" source="xcf2dydyv8335VmhDi4d-9" target="xcf2dydyv8335VmhDi4d-13">
          <mxGeometry width="160" relative="1" as="geometry">
            <mxPoint x="55" y="220" as="sourcePoint" />
            <mxPoint x="160" y="188.39999999999998" as="targetPoint" />
            <Array as="points">
              <mxPoint x="62" y="394.4069959456997" />
              <mxPoint x="138" y="474.32849797284985" />
            </Array>
          </mxGeometry>
        </mxCell>
        <mxCell id="xcf2dydyv8335VmhDi4d-15" value="stddev" style="shape=mxgraph.bpmn.data;labelPosition=center;verticalLabelPosition=bottom;align=center;verticalAlign=top;whiteSpace=wrap;size=15;html=1;labelBackgroundColor=none;" vertex="1" parent="1">
          <mxGeometry x="408.75" y="327" width="42.5" height="50" as="geometry" />
        </mxCell>
        <mxCell id="xcf2dydyv8335VmhDi4d-16" value="mean" style="shape=mxgraph.bpmn.data;labelPosition=center;verticalLabelPosition=bottom;align=center;verticalAlign=top;whiteSpace=wrap;size=15;html=1;labelBackgroundColor=none;" vertex="1" parent="1">
          <mxGeometry x="408.75" y="428" width="42.5" height="50" as="geometry" />
        </mxCell>
        <mxCell id="xcf2dydyv8335VmhDi4d-17" value="" style="edgeStyle=elbowEdgeStyle;fontSize=12;html=1;endFill=0;startFill=0;endSize=6;startSize=6;dashed=1;dashPattern=1 4;endArrow=openThin;startArrow=none;rounded=0;noEdgeStyle=1;orthogonal=1;labelBackgroundColor=none;fontColor=default;" edge="1" parent="1" source="7a84cebc1def654-2" target="xcf2dydyv8335VmhDi4d-15">
          <mxGeometry width="160" relative="1" as="geometry">
            <mxPoint x="281" y="170.89999999999998" as="sourcePoint" />
            <mxPoint x="387.5" y="170" as="targetPoint" />
            <Array as="points">
              <mxPoint x="284" y="294.07331905976673" />
              <mxPoint x="358" y="362.5" />
            </Array>
          </mxGeometry>
        </mxCell>
        <mxCell id="xcf2dydyv8335VmhDi4d-18" value="" style="edgeStyle=elbowEdgeStyle;fontSize=12;html=1;endFill=0;startFill=0;endSize=6;startSize=6;dashed=1;dashPattern=1 4;endArrow=openThin;startArrow=none;rounded=0;noEdgeStyle=1;orthogonal=1;labelBackgroundColor=none;fontColor=default;" edge="1" parent="1" source="7a84cebc1def654-2" target="xcf2dydyv8335VmhDi4d-16">
          <mxGeometry width="160" relative="1" as="geometry">
            <mxPoint x="281" y="180.89999999999998" as="sourcePoint" />
            <mxPoint x="530" y="179.5" as="targetPoint" />
            <Array as="points">
              <mxPoint x="282" y="308.07331905976673" />
              <mxPoint x="358" y="463.5" />
            </Array>
          </mxGeometry>
        </mxCell>
        <mxCell id="xcf2dydyv8335VmhDi4d-20" value="data point" style="shape=mxgraph.bpmn.data;labelPosition=center;verticalLabelPosition=bottom;align=center;verticalAlign=top;whiteSpace=wrap;size=15;html=1;labelBackgroundColor=none;" vertex="1" parent="1">
          <mxGeometry x="408.75" y="529" width="42.5" height="50" as="geometry" />
        </mxCell>
        <mxCell id="xcf2dydyv8335VmhDi4d-21" value="" style="edgeStyle=elbowEdgeStyle;fontSize=12;html=1;endFill=0;startFill=0;endSize=6;startSize=6;dashed=1;dashPattern=1 4;endArrow=openThin;startArrow=none;rounded=0;noEdgeStyle=1;orthogonal=1;labelBackgroundColor=none;fontColor=default;" edge="1" parent="1" source="xcf2dydyv8335VmhDi4d-13" target="xcf2dydyv8335VmhDi4d-20">
          <mxGeometry width="160" relative="1" as="geometry">
            <mxPoint x="280" y="239.5" as="sourcePoint" />
            <mxPoint x="387.5" y="487.5" as="targetPoint" />
            <Array as="points">
              <mxPoint x="282" y="474.32849797284985" />
              <mxPoint x="358" y="572" />
            </Array>
          </mxGeometry>
        </mxCell>
        <mxCell id="xcf2dydyv8335VmhDi4d-22" value="compute Z-score" style="shape=ext;rounded=1;html=1;whiteSpace=wrap;labelBackgroundColor=none;" vertex="1" parent="1">
          <mxGeometry x="590" y="422.890625" width="60" height="80" as="geometry" />
        </mxCell>
        <mxCell id="xcf2dydyv8335VmhDi4d-23" value="" style="edgeStyle=elbowEdgeStyle;fontSize=12;html=1;endFill=0;startFill=0;endSize=6;startSize=6;dashed=1;dashPattern=1 4;endArrow=openThin;startArrow=none;rounded=0;noEdgeStyle=1;orthogonal=1;labelBackgroundColor=none;fontColor=default;" edge="1" parent="1" source="xcf2dydyv8335VmhDi4d-20" target="xcf2dydyv8335VmhDi4d-22">
          <mxGeometry width="160" relative="1" as="geometry">
            <mxPoint x="70" y="360" as="sourcePoint" />
            <mxPoint x="160" y="321.5" as="targetPoint" />
            <Array as="points">
              <mxPoint x="502" y="572" />
              <mxPoint x="578" y="486.2239583333333" />
            </Array>
          </mxGeometry>
        </mxCell>
        <mxCell id="xcf2dydyv8335VmhDi4d-24" value="" style="edgeStyle=elbowEdgeStyle;fontSize=12;html=1;endFill=0;startFill=0;endSize=6;startSize=6;dashed=1;dashPattern=1 4;endArrow=openThin;startArrow=none;rounded=0;noEdgeStyle=1;orthogonal=1;labelBackgroundColor=none;fontColor=default;" edge="1" parent="1" source="xcf2dydyv8335VmhDi4d-16" target="xcf2dydyv8335VmhDi4d-22">
          <mxGeometry width="160" relative="1" as="geometry">
            <mxPoint x="418.75" y="587.7268518518517" as="sourcePoint" />
            <mxPoint x="410" y="695" as="targetPoint" />
            <Array as="points">
              <mxPoint x="502" y="463.5" />
              <mxPoint x="576" y="462.890625" />
            </Array>
          </mxGeometry>
        </mxCell>
        <mxCell id="xcf2dydyv8335VmhDi4d-25" value="" style="edgeStyle=elbowEdgeStyle;fontSize=12;html=1;endFill=0;startFill=0;endSize=6;startSize=6;dashed=1;dashPattern=1 4;endArrow=openThin;startArrow=none;rounded=0;noEdgeStyle=1;orthogonal=1;labelBackgroundColor=none;fontColor=default;" edge="1" parent="1" source="xcf2dydyv8335VmhDi4d-15" target="xcf2dydyv8335VmhDi4d-22">
          <mxGeometry width="160" relative="1" as="geometry">
            <mxPoint x="418.75" y="488" as="sourcePoint" />
            <mxPoint x="410" y="705" as="targetPoint" />
            <Array as="points">
              <mxPoint x="502" y="362.5" />
              <mxPoint x="578" y="439.5572916666667" />
            </Array>
          </mxGeometry>
        </mxCell>
        <mxCell id="xcf2dydyv8335VmhDi4d-26" value="Z-score" style="shape=mxgraph.bpmn.data;labelPosition=center;verticalLabelPosition=bottom;align=center;verticalAlign=top;whiteSpace=wrap;size=15;html=1;labelBackgroundColor=none;" vertex="1" parent="1">
          <mxGeometry x="750" y="427.390625" width="42.5" height="50" as="geometry" />
        </mxCell>
        <mxCell id="xcf2dydyv8335VmhDi4d-27" value="" style="edgeStyle=elbowEdgeStyle;fontSize=12;html=1;endFill=0;startFill=0;endSize=6;startSize=6;dashed=1;dashPattern=1 4;endArrow=openThin;startArrow=none;rounded=0;noEdgeStyle=1;orthogonal=1;labelBackgroundColor=none;fontColor=default;" edge="1" parent="1" source="xcf2dydyv8335VmhDi4d-22" target="xcf2dydyv8335VmhDi4d-26">
          <mxGeometry width="160" relative="1" as="geometry">
            <mxPoint x="280" y="552.7268518518517" as="sourcePoint" />
            <mxPoint x="418.75" y="582" as="targetPoint" />
            <Array as="points">
              <mxPoint x="662" y="462.890625" />
              <mxPoint x="738" y="462.890625" />
            </Array>
          </mxGeometry>
        </mxCell>
      </root>
    </mxGraphModel>
  </diagram>
</mxfile>
